<svg width="1771" height="365" viewBox="0 0 1771 365" fill="none" xmlns="http://www.w3.org/2000/svg">
<path d="M518.314 255.738C516.289 255.797 514.272 255.442 512.389 254.694C510.506 253.946 508.796 252.821 507.363 251.389C505.93 249.956 504.805 248.245 504.057 246.362C503.31 244.479 502.954 242.463 503.014 240.438V106.938C502.925 104.886 503.266 102.839 504.015 100.927C504.764 99.0159 505.905 97.2821 507.364 95.8376C508.824 94.4379 510.549 93.345 512.439 92.6237C514.328 91.9023 516.343 91.567 518.364 91.6376C522.964 91.6376 526.664 93.0376 529.464 95.8376C532.264 98.6376 533.664 102.338 533.664 106.938V240.438C533.735 242.459 533.399 244.474 532.678 246.363C531.956 248.252 530.864 249.978 529.464 251.438C528.009 252.894 526.265 254.029 524.345 254.77C522.424 255.511 520.37 255.84 518.314 255.738V255.738ZM618.514 255.738C616.489 255.797 614.472 255.442 612.589 254.694C610.706 253.946 608.996 252.821 607.563 251.389C606.13 249.956 605.005 248.245 604.257 246.362C603.51 244.479 603.154 242.463 603.214 240.438V154.608C603.214 142.008 600.114 132.674 593.914 126.608C587.714 120.541 579.621 117.484 569.634 117.438C559.234 117.438 550.634 121.038 543.834 128.238C537.034 135.438 533.634 144.638 533.634 155.838H514.734C514.734 142.838 517.334 131.388 522.534 121.488C527.45 111.893 534.926 103.846 544.134 98.2376C553.334 92.6376 563.834 89.8376 575.634 89.8376C587.034 89.8376 597.134 92.3376 605.934 97.3376C614.837 102.441 621.998 110.107 626.484 119.338C631.384 129.038 633.834 140.788 633.834 154.588V240.388C633.905 242.409 633.569 244.424 632.848 246.313C632.126 248.202 631.034 249.928 629.634 251.388C628.187 252.849 626.45 253.992 624.535 254.741C622.619 255.49 620.568 255.83 618.514 255.738V255.738ZM718.414 255.738C716.389 255.797 714.372 255.442 712.489 254.694C710.606 253.946 708.896 252.821 707.463 251.389C706.03 249.956 704.905 248.245 704.157 246.362C703.409 244.479 703.054 242.463 703.114 240.438V154.608C703.114 142.008 700.014 132.674 693.814 126.608C687.614 120.541 679.514 117.491 669.514 117.458C659.114 117.458 650.564 121.058 643.864 128.258C637.164 135.458 633.814 144.658 633.814 155.858H608.914C608.914 142.858 611.714 131.408 617.314 121.508C622.822 111.698 630.984 103.64 640.864 98.2576C650.964 92.6576 662.514 89.8576 675.514 89.8576C686.914 89.8576 697.014 92.3576 705.814 97.3576C714.717 102.461 721.878 110.127 726.364 119.358C731.264 129.058 733.714 140.808 733.714 154.608V240.408C733.785 242.429 733.449 244.444 732.728 246.333C732.006 248.222 730.914 249.948 729.514 251.408C728.068 252.863 726.333 254 724.422 254.746C722.51 255.492 720.464 255.829 718.414 255.738V255.738Z" fill="#F095B4"/>
<path d="M855.514 256.608C838.914 256.608 824.164 253.058 811.264 245.958C798.649 239.135 788.164 228.961 780.964 216.558C773.664 204.058 770.014 189.708 770.014 173.508C770.014 157.108 773.464 142.658 780.364 130.158C787.023 117.905 796.938 107.731 809.014 100.758C821.214 93.6576 835.214 90.1076 851.014 90.1076C866.614 90.1076 880.014 93.5576 891.214 100.458C902.341 107.276 911.251 117.176 916.864 128.958C922.764 141.058 925.714 155.008 925.714 170.808C925.763 172.568 925.441 174.319 924.769 175.947C924.097 177.575 923.09 179.044 921.814 180.258C920.495 181.508 918.94 182.484 917.241 183.128C915.541 183.771 913.73 184.071 911.914 184.008H791.014V160.008H911.014L898.714 168.408C898.678 159.129 896.631 149.969 892.714 141.558C889.15 133.931 883.543 127.441 876.514 122.808C869.514 118.208 861.014 115.908 851.014 115.908C839.614 115.908 829.864 118.408 821.764 123.408C813.746 128.317 807.334 135.459 803.314 143.958C799.114 152.658 797.014 162.508 797.014 173.508C797.014 184.508 799.514 194.308 804.514 202.908C809.452 211.447 816.604 218.495 825.214 223.308C834.014 228.308 844.114 230.808 855.514 230.808C861.998 230.748 868.423 229.582 874.514 227.358C880.135 225.494 885.444 222.797 890.264 219.358C893.077 217.223 896.484 216.017 900.014 215.908C903.354 215.752 906.627 216.879 909.164 219.058C912.564 222.058 914.364 225.358 914.564 228.958C914.764 232.558 913.164 235.658 909.764 238.258C902.964 243.658 894.514 248.058 884.414 251.458C875.124 254.732 865.363 256.472 855.514 256.608V256.608Z" fill="#F095B4"/>
<path d="M997.714 255.438C989.346 255.574 981.149 253.053 974.304 248.238C967.34 243.241 961.851 236.46 958.414 228.608C954.607 220.308 952.707 210.758 952.714 199.958V36.1376C952.714 32.1594 954.294 28.3441 957.107 25.531C959.92 22.718 963.736 21.1376 967.714 21.1376C971.692 21.1376 975.507 22.718 978.32 25.531C981.134 28.3441 982.714 32.1594 982.714 36.1376V199.938C982.714 207.338 984.114 213.438 986.914 218.238C989.714 223.038 993.314 225.438 997.714 225.438H1005.21C1007.05 225.378 1008.87 225.724 1010.56 226.45C1012.24 227.176 1013.75 228.264 1014.96 229.638C1017.53 232.636 1018.87 236.493 1018.71 240.438C1018.73 242.569 1018.22 244.671 1017.22 246.555C1016.23 248.44 1014.78 250.049 1013.01 251.238C1009.21 254.038 1004.3 255.438 998.304 255.438H997.714Z" fill="#F095B4"/>
<path d="M1108.1 256.608C1091.9 256.608 1077.6 253.058 1065.2 245.958C1052.95 239.009 1042.84 228.842 1035.95 216.558C1028.85 204.058 1025.3 189.708 1025.3 173.508C1025.3 157.108 1028.85 142.658 1035.95 130.158C1042.84 117.873 1052.95 107.706 1065.2 100.758C1077.6 93.6576 1091.9 90.1076 1108.1 90.1076C1124.1 90.1076 1138.3 93.6576 1150.7 100.758C1162.95 107.706 1173.07 117.873 1179.95 130.158C1187.07 142.678 1190.63 157.138 1190.63 173.538C1190.63 189.738 1187.13 204.088 1180.13 216.588C1173.33 228.886 1163.26 239.062 1151.03 245.988C1138.61 253.068 1124.3 256.608 1108.1 256.608ZM1108.1 229.608C1118.5 229.608 1127.7 227.208 1135.7 222.408C1143.66 217.658 1150.14 210.807 1154.45 202.608C1158.95 194.208 1161.2 184.508 1161.2 173.508C1161.2 162.508 1158.95 152.758 1154.45 144.258C1150.18 135.995 1143.69 129.087 1135.7 124.308C1127.7 119.508 1118.5 117.108 1108.1 117.108C1097.7 117.108 1088.5 119.508 1080.5 124.308C1072.51 129.122 1065.98 136.031 1061.63 144.288C1057.03 152.788 1054.73 162.538 1054.73 173.538C1054.73 184.538 1057.03 194.228 1061.63 202.608C1066.03 210.794 1072.56 217.636 1080.53 222.408C1088.51 227.208 1097.7 229.608 1108.1 229.608Z" fill="#F095B4"/>
<path d="M1304.63 256.608C1289.03 256.608 1274.98 252.941 1262.48 245.608C1250.13 238.45 1239.88 228.152 1232.78 215.758C1225.48 203.158 1221.82 188.958 1221.78 173.158C1221.75 157.358 1225.1 143.208 1231.83 130.708C1238.21 118.561 1247.68 108.315 1259.28 101.008C1270.88 93.6743 1283.98 90.0076 1298.58 90.0076C1309.67 89.9197 1320.62 92.3281 1330.65 97.0541C1340.67 101.78 1349.5 108.703 1356.48 117.308V36.3076C1356.39 34.2564 1356.74 32.2091 1357.48 30.2975C1358.23 28.3858 1359.37 26.6521 1360.83 25.2076C1362.29 23.814 1364.01 22.7247 1365.89 22.0035C1367.77 21.2823 1369.77 20.9437 1371.78 21.0076C1376.38 21.0076 1380.07 22.4076 1382.88 25.2076C1385.69 28.0076 1387.08 31.7076 1387.08 36.3076V173.108C1387.08 188.908 1383.42 203.108 1376.08 215.708C1369.06 228.106 1358.9 238.443 1346.63 245.688C1334.21 252.968 1320.21 256.608 1304.63 256.608ZM1304.63 229.608C1314.24 229.768 1323.7 227.221 1331.93 222.258C1339.95 217.341 1346.48 210.342 1350.83 202.008C1355.5 193.134 1357.87 183.233 1357.73 173.208C1357.73 162.408 1355.43 152.808 1350.83 144.408C1346.42 136.181 1339.9 129.277 1331.93 124.408C1323.67 119.594 1314.27 117.058 1304.71 117.058C1295.14 117.058 1285.75 119.594 1277.48 124.408C1269.43 129.264 1262.81 136.164 1258.28 144.408C1253.58 152.808 1251.25 162.408 1251.28 173.208C1251.13 183.247 1253.54 193.159 1258.28 202.008C1262.75 210.36 1269.38 217.355 1277.48 222.258C1285.67 227.184 1295.08 229.73 1304.63 229.608Z" fill="#F095B4"/>
<path d="M1453.39 64.6076C1448.76 64.6388 1444.26 63.0604 1440.66 60.142C1437.06 57.2236 1434.59 53.1462 1433.66 48.6063C1432.74 44.0665 1433.42 39.346 1435.58 35.251C1437.75 31.156 1441.27 27.9408 1445.55 26.1544C1449.82 24.368 1454.59 24.1213 1459.02 25.4566C1463.46 26.7918 1467.3 29.6261 1469.87 33.4752C1472.45 37.3244 1473.62 41.9496 1473.16 46.5608C1472.71 51.172 1470.67 55.4831 1467.39 58.7577C1465.59 60.6422 1463.41 62.1343 1461 63.1408C1458.59 64.1473 1456 64.6466 1453.39 64.6076V64.6076ZM1453.39 255.408C1451.37 255.467 1449.35 255.112 1447.47 254.364C1445.59 253.616 1443.88 252.491 1442.44 251.059C1441.01 249.626 1439.89 247.915 1439.14 246.032C1438.39 244.149 1438.03 242.133 1438.09 240.108V106.608C1438 104.556 1438.35 102.509 1439.09 100.598C1439.84 98.6859 1440.98 96.9522 1442.44 95.5077C1443.9 94.1079 1445.63 93.0151 1447.52 92.2937C1449.41 91.5723 1451.42 91.237 1453.44 91.3076C1458.04 91.3076 1461.74 92.7077 1464.54 95.5077C1467.34 98.3077 1468.74 102.008 1468.74 106.608V240.108C1468.81 242.129 1468.48 244.144 1467.76 246.033C1467.04 247.922 1465.94 249.648 1464.54 251.108C1463.09 252.57 1461.35 253.71 1459.43 254.456C1457.51 255.202 1455.45 255.536 1453.39 255.438V255.408Z" fill="#F095B4"/>
<path d="M1509.79 123.138C1506.06 123.304 1502.4 122.014 1499.59 119.538C1498.33 118.407 1497.33 117.018 1496.66 115.464C1495.99 113.911 1495.66 112.23 1495.69 110.538C1495.62 108.751 1495.92 106.969 1496.6 105.312C1497.27 103.656 1498.29 102.163 1499.59 100.938C1502.4 98.4614 1506.06 97.1708 1509.79 97.3376H1583.89C1587.63 97.1708 1591.29 98.4614 1594.09 100.938C1595.4 102.163 1596.42 103.656 1597.09 105.312C1597.76 106.969 1598.07 108.751 1597.99 110.538C1598.03 112.23 1597.7 113.911 1597.03 115.464C1596.36 117.018 1595.35 118.407 1594.09 119.538C1591.29 122.014 1587.63 123.304 1583.89 123.138H1509.79ZM1537.39 255.438C1535.42 255.417 1533.47 255.003 1531.65 254.219C1529.84 253.436 1528.2 252.298 1526.83 250.874C1525.46 249.449 1524.39 247.766 1523.68 245.922C1522.97 244.079 1522.64 242.112 1522.69 240.138V92.2376C1522.69 77.8376 1525.54 65.3376 1531.24 54.7376C1536.69 44.398 1544.96 35.816 1555.09 29.9876C1565.29 24.0876 1577.09 21.1376 1590.49 21.1376C1594.52 20.9851 1598.46 22.3805 1601.49 25.0376C1602.9 26.2664 1604.02 27.7907 1604.77 29.5019C1605.53 31.2131 1605.89 33.0691 1605.84 34.9376C1605.86 36.7796 1605.48 38.6036 1604.73 40.2858C1603.98 41.968 1602.88 43.4692 1601.49 44.6876C1598.49 47.413 1594.54 48.8496 1590.49 48.6876C1583.65 48.5413 1576.89 50.3075 1570.99 53.7876C1565.43 57.1789 1560.92 62.064 1557.99 67.8876C1554.89 73.8876 1553.34 80.9876 1553.34 89.1876V240.088C1553.34 244.688 1551.94 248.388 1549.14 251.188C1546.34 253.988 1542.43 255.404 1537.39 255.438Z" fill="#F095B4"/>
<path d="M1700.63 248.838C1698.98 249.622 1697.18 250.065 1695.35 250.143C1693.53 250.22 1691.7 249.929 1689.98 249.288C1686.46 247.814 1683.61 245.089 1681.98 241.638L1613.28 111.138C1611.28 107.338 1611.03 103.688 1612.53 100.188C1613.28 98.4478 1614.37 96.875 1615.74 95.5614C1617.1 94.2478 1618.72 93.2198 1620.48 92.5376C1622.16 91.7506 1623.98 91.3055 1625.84 91.2283C1627.69 91.151 1629.54 91.4431 1631.28 92.0876C1633.02 92.7855 1634.61 93.8207 1635.95 95.1336C1637.29 96.4465 1638.35 98.0112 1639.08 99.7376L1704.78 230.238C1706.68 233.556 1707.47 237.391 1707.03 241.188C1706.54 244.688 1704.38 247.238 1700.63 248.838ZM1665.23 327.438C1662.74 327.32 1660.29 326.708 1658.03 325.638C1649.23 321.638 1646.83 315.338 1650.83 306.738L1742.33 100.038C1746.33 91.6376 1752.63 89.2376 1761.23 92.8376C1770.23 96.6376 1772.73 102.938 1768.73 111.738L1676.93 318.138C1674.51 324.331 1670.59 327.431 1665.19 327.438H1665.23Z" fill="#F095B4"/>
<path d="M146.873 312.97C144.428 313.007 142 312.552 139.734 311.633C137.467 310.715 135.408 309.35 133.679 307.621C131.95 305.892 147.792 296.693 146.873 294.427C145.954 292.161 128.293 245.523 128.33 243.078V53.0132C128.243 50.5348 128.673 48.0655 129.594 45.7629C130.515 43.4604 131.906 41.3753 133.679 39.6409C137.303 36.3156 142.043 34.4707 146.962 34.4707C151.881 34.4707 156.621 36.3156 160.245 39.6409C161.968 41.4019 163.314 43.4964 164.199 45.7958C165.084 48.0953 165.49 50.5512 165.392 53.0132V294.427C165.454 296.86 165.028 299.281 164.14 301.546C163.252 303.812 161.92 305.878 160.221 307.621C158.49 309.39 156.409 310.78 154.11 311.701C151.812 312.622 149.347 313.054 146.873 312.97Z" fill="#F095B4"/>
<path d="M91.6961 245.324C100.394 245.324 108.897 247.903 116.13 252.736C123.362 257.569 128.999 264.437 132.328 272.474C135.657 280.51 136.528 289.353 134.831 297.884C133.134 306.415 128.945 314.252 122.795 320.402C116.644 326.553 108.807 330.742 100.276 332.439C91.7448 334.136 82.9019 333.265 74.8657 329.936C66.8294 326.607 59.9607 320.97 55.1281 313.738C50.2955 306.505 47.7162 298.002 47.7162 289.304C47.7162 277.64 52.3497 266.453 60.5976 258.205C68.8454 249.958 80.0319 245.324 91.6961 245.324ZM91.6961 215.608C77.1204 215.608 62.872 219.93 50.7527 228.028C38.6335 236.126 29.1877 247.636 23.6098 261.102C18.032 274.568 16.5725 289.386 19.4161 303.681C22.2596 317.977 29.2785 331.108 39.5851 341.415C49.8917 351.721 63.0231 358.74 77.3187 361.584C91.6143 364.428 106.432 362.968 119.898 357.39C133.364 351.812 144.874 342.367 152.972 330.247C161.07 318.128 165.392 303.88 165.392 289.304C165.392 269.759 157.628 251.014 143.807 237.193C129.986 223.372 111.241 215.608 91.6961 215.608V215.608Z" fill="#F095B4"/>
<path d="M384.602 278.499C382.157 278.536 379.729 278.082 377.463 277.163C375.196 276.244 373.137 274.879 371.408 273.15C369.679 271.421 381.907 249.504 380.989 247.238C380.07 244.971 366.022 222.939 366.059 220.493V18.5425C365.972 16.0641 366.402 13.5948 367.323 11.2922C368.244 8.9897 369.636 6.90461 371.408 5.17021C375.033 1.84491 379.772 0 384.691 0C389.61 0 394.35 1.84491 397.974 5.17021C399.698 6.9312 401.043 9.02565 401.928 11.3251C402.813 13.6246 403.219 16.0805 403.121 18.5425V259.956C403.183 262.389 392.727 266.368 391.839 268.633C390.951 270.899 399.649 271.407 397.951 273.15C396.219 274.92 394.138 276.309 391.839 277.23C389.541 278.151 387.076 278.583 384.602 278.499Z" fill="#F095B4"/>
<path d="M329.425 210.853C338.124 210.853 346.627 213.433 353.859 218.265C361.091 223.098 366.728 229.967 370.057 238.003C373.386 246.039 374.257 254.882 372.56 263.413C370.863 271.945 366.674 279.781 360.524 285.932C354.373 292.082 346.536 296.271 338.005 297.968C329.474 299.665 320.631 298.794 312.595 295.465C304.558 292.137 297.69 286.5 292.857 279.267C288.025 272.035 285.445 263.532 285.445 254.833C285.445 243.169 290.079 231.983 298.327 223.735C306.574 215.487 317.761 210.853 329.425 210.853ZM329.425 181.137C314.849 181.137 300.601 185.459 288.482 193.557C276.363 201.655 266.917 213.165 261.339 226.631C255.761 240.097 254.302 254.915 257.145 269.211C259.989 283.506 267.008 296.638 277.314 306.944C287.621 317.251 300.752 324.27 315.048 327.113C329.343 329.957 344.161 328.497 357.627 322.919C371.094 317.342 382.603 307.896 390.701 295.777C398.799 283.657 403.121 269.409 403.121 254.833C403.121 235.288 395.357 216.543 381.536 202.722C367.715 188.902 348.971 181.137 329.425 181.137Z" fill="#F095B4"/>
<path d="M284.102 126.234C282.039 130.338 278.932 133.827 275.092 136.349C271.59 138.497 268.519 138.853 265.88 137.419L144.222 71.0806C141.465 69.5829 140.07 66.8094 140.038 62.7601C140.152 58.1812 141.428 53.7065 143.747 49.7563C146.378 44.9542 149.381 41.515 152.757 39.4389C156.132 37.3627 159.203 37.0735 161.969 38.5711L283.638 104.909C286.277 106.344 287.668 109.066 287.811 113.075C287.953 117.085 286.717 121.471 284.102 126.234Z" fill="#F095B4"/>
<path d="M393.089 10.0556C396.257 13.4591 398.349 17.7223 399.103 22.3105C399.69 26.5342 398.687 29.7673 396.096 32.0099L276.899 135.553C274.189 137.93 270.817 138.497 266.783 137.253C262.385 135.797 258.495 133.112 255.575 129.514C252.001 125.378 249.928 121.273 249.358 117.2C248.787 113.127 249.857 109.914 252.567 107.56L371.776 4.02914C374.352 1.79448 377.652 1.21205 381.678 2.28183C385.703 3.35161 389.507 5.94286 393.089 10.0556Z" fill="#F095B4"/>
<path d="M128.873 314.97C126.428 315.007 124 314.552 121.734 313.633C119.467 312.715 117.408 311.35 115.679 309.621C113.95 307.892 129.792 298.693 128.873 296.427C127.954 294.161 110.293 247.523 110.33 245.078V55.0132C110.243 52.5348 110.673 50.0655 111.594 47.7629C112.515 45.4604 113.906 43.3753 115.679 41.6409C119.303 38.3156 124.043 36.4707 128.962 36.4707C133.881 36.4707 138.621 38.3156 142.245 41.6409C143.968 43.4019 145.314 45.4964 146.199 47.7958C147.084 50.0953 147.49 52.5512 147.392 55.0132V296.427C147.454 298.86 147.028 301.281 146.14 303.546C145.252 305.812 143.92 307.878 142.221 309.621C140.49 311.39 138.409 312.78 136.11 313.701C133.812 314.622 131.347 315.054 128.873 314.97Z" fill="#99D6EA"/>
<path d="M73.6961 247.324C82.3944 247.324 90.8975 249.903 98.1299 254.736C105.362 259.569 110.999 266.437 114.328 274.474C117.657 282.51 118.528 291.353 116.831 299.884C115.134 308.415 110.945 316.252 104.795 322.402C98.6438 328.553 90.8073 332.742 82.2761 334.439C73.7448 336.136 64.9019 335.265 56.8657 331.936C48.8294 328.607 41.9607 322.97 37.1281 315.738C32.2955 308.505 29.7162 300.002 29.7162 291.304C29.7162 279.64 34.3497 268.453 42.5976 260.205C50.8454 251.958 62.0319 247.324 73.6961 247.324ZM73.6961 217.608C59.1204 217.608 44.872 221.93 32.7527 230.028C20.6335 238.126 11.1877 249.636 5.60984 263.102C0.0319681 276.568 -1.42751 291.386 1.41607 305.681C4.25964 319.977 11.2785 333.108 21.5851 343.415C31.8917 353.721 45.0231 360.74 59.3187 363.584C73.6143 366.428 88.4321 364.968 101.898 359.39C115.364 353.812 126.874 344.367 134.972 332.247C143.07 320.128 147.392 305.88 147.392 291.304C147.392 271.759 139.628 253.014 125.807 239.193C111.986 225.372 93.2414 217.608 73.6961 217.608V217.608Z" fill="#99D6EA"/>
<path d="M366.602 280.499C364.157 280.536 361.729 280.082 359.463 279.163C357.196 278.244 355.137 276.879 353.408 275.15C351.679 273.421 363.907 251.504 362.989 249.238C362.07 246.971 348.022 224.939 348.059 222.493V20.5425C347.972 18.0641 348.402 15.5948 349.323 13.2922C350.244 10.9897 351.636 8.90461 353.408 7.17021C357.033 3.84491 361.772 2 366.691 2C371.61 2 376.35 3.84491 379.974 7.17021C381.698 8.9312 383.043 11.0257 383.928 13.3251C384.813 15.6246 385.219 18.0805 385.121 20.5425V261.956C385.183 264.389 374.727 268.368 373.839 270.633C372.951 272.899 381.649 273.407 379.951 275.15C378.219 276.92 376.138 278.309 373.839 279.23C371.541 280.151 369.076 280.583 366.602 280.499Z" fill="#99D6EA"/>
<path d="M311.425 212.853C320.124 212.853 328.627 215.433 335.859 220.265C343.091 225.098 348.728 231.967 352.057 240.003C355.386 248.039 356.257 256.882 354.56 265.413C352.863 273.945 348.674 281.781 342.524 287.932C336.373 294.082 328.536 298.271 320.005 299.968C311.474 301.665 302.631 300.794 294.595 297.465C286.558 294.137 279.69 288.5 274.857 281.267C270.025 274.035 267.445 265.532 267.445 256.833C267.445 245.169 272.079 233.983 280.327 225.735C288.574 217.487 299.761 212.853 311.425 212.853ZM311.425 183.137C296.849 183.137 282.601 187.459 270.482 195.557C258.363 203.655 248.917 215.165 243.339 228.631C237.761 242.097 236.302 256.915 239.145 271.211C241.989 285.506 249.008 298.638 259.314 308.944C269.621 319.251 282.752 326.27 297.048 329.113C311.343 331.957 326.161 330.497 339.627 324.919C353.094 319.342 364.603 309.896 372.701 297.777C380.799 285.657 385.121 271.409 385.121 256.833C385.121 237.288 377.357 218.543 363.536 204.722C349.715 190.902 330.971 183.137 311.425 183.137Z" fill="#99D6EA"/>
<path d="M266.102 128.234C264.039 132.338 260.932 135.827 257.092 138.349C253.59 140.497 250.519 140.853 247.88 139.419L126.222 73.0806C123.465 71.5829 122.07 68.8094 122.038 64.7601C122.152 60.1812 123.428 55.7065 125.747 51.7563C128.378 46.9542 131.381 43.515 134.757 41.4389C138.132 39.3627 141.203 39.0735 143.969 40.5711L265.638 106.909C268.277 108.344 269.668 111.066 269.811 115.075C269.953 119.085 268.717 123.471 266.102 128.234Z" fill="#99D6EA"/>
<path d="M375.089 12.0556C378.257 15.4591 380.349 19.7223 381.103 24.3105C381.69 28.5342 380.687 31.7673 378.096 34.0099L258.899 137.553C256.189 139.93 252.817 140.497 248.783 139.253C244.385 137.797 240.495 135.112 237.575 131.514C234.001 127.378 231.928 123.273 231.358 119.2C230.787 115.127 231.857 111.914 234.567 109.56L353.776 6.02914C356.352 3.79448 359.652 3.21205 363.678 4.28183C367.703 5.35161 371.507 7.94286 375.089 12.0556Z" fill="#99D6EA"/>
</svg>
